<?xml version="1.0" encoding="UTF-8"?>
<svg width="200px" height="200px" viewBox="0 0 200 200" version="1.1" xmlns="http://www.w3.org/2000/svg" xmlns:xlink="http://www.w3.org/1999/xlink">
    <!-- Generator: Sketch 48.2 (47327) - http://www.bohemiancoding.com/sketch -->
    <title>Artboard</title>
    <desc>Created with Sketch.</desc>
    <defs></defs>
    <g id="kryptonite_by_kryptco" stroke="none" stroke-width="1" fill="none" fill-rule="evenodd">
        <g id="Artboard" fill="#5BC894">
            <g id="Group-2" transform="translate(13.000000, 1.000000)">
                <g id="shield">
                    <g id="Icon">
                        <g id="Logo-corrections">
                            <g id="Kryptonite_Icon_WhiteOnGreen">
                                <g id="Group">
                                    <path d="M86.9683516,0 C143.686842,0 173.936703,38.062662 173.936703,38.062662 L173.936703,125.606785 C173.936703,175.088246 109.655748,194.119577 86.9683516,197.925843 L86.9683516,0 L86.9683516,0 Z M86.9683516,45.6751945 C114.116474,45.6751945 136.124376,67.8287991 136.124376,95.1566552 C136.124376,122.484511 114.116474,144.638116 86.9683516,144.638116 L86.9683516,197.925843 C64.2809555,194.119577 -1.40442569e-14,175.088246 0,125.606785 C1.40442569e-14,76.1253242 0,76.1253272 0,38.062662 C-1.40442569e-14,38.062662 30.2498614,0 86.9683516,0 L86.9683516,45.6751945 Z M86.9683516,45.6751945 C59.8202288,45.6751945 37.8123268,67.8287991 37.8123268,95.1566552 C37.8123268,122.484511 59.8202288,144.638116 86.9683516,144.638116 L86.9683516,45.6751945 Z" id="Combined-Shape"></path>
                                    <ellipse id="Oval-Copy-2" cx="86.9683516" cy="95.1566552" rx="34.0310941" ry="34.2563958"></ellipse>
                                </g>
                            </g>
                        </g>
                    </g>
                </g>
            </g>
        </g>
    </g>
</svg>